Patient4_TMGait_0pt2_02_left_12_EMG.mot
version=1
nRows=19
nColumns=33
inDegrees=no
endheader
time	1LAddLong	2LGlutMax	3LGlutMed	4LIliopsoas	5LSemiMemb	6LBicFemLong	7LRecFem	8LVastMed	9LVastLat	10LGasMed	11LTibAnt	12lTibPost	13LPeroneusLong	14LSol	15LExtDigLong	16LFlexDigLong	17RAddLong	18RGlutMax	19RGlutMed	20RIliopsoas	21RSemiMemb	22RBicFemLong	23RRecFem	24RVastMed	25RVastLat	26RGasMed	27RTibAnt	28RTibPost	29RPeroneusLong	30RSol	31RExtDigLong	32RFlexDigLong
28.427	0.00824	-0.079651	0.052643	0.005035	-0.059357	-0.19852	0.005493	-0.009918	0.15839	0.020447	-0.013275	-0.001678	0.051727	0.13321	0.37064	0.001984	0.007019	-0.028534	0.13641	-0.019073	0.02243	-0.000458	-0.003357	-0.027161	0.026703	-0.00824	0.26184	-0.005951	-0.52246	0.046844	0.001373	-0.005646
28.428	0.004272	-0.060577	0.047302	0.014496	-0.035706	-0.11002	0.075073	-0.009155	0.14404	0.045776	-0.040588	-0.001831	0.049286	0.09079	-0.17746	0.001984	0.004425	-0.057983	0.1062	0.054169	0.021362	0.021057	0.00824	-0.07309	0.054932	-0.007324	-0.19882	-0.005341	-0.12741	0.028381	-0.003967	-0.010223
28.429	-0.012054	-0.016174	0.059357	-0.006714	-0.047302	-0.020142	0.081787	-0.002136	0.19608	0.04364	-0.068054	-0.002441	0.049896	0.092773	-0.16571	-0.005188	0.008087	-0.072632	-0.027924	0.13046	0.014191	0.00946	0.021057	-0.077972	0.025482	-0.005951	-0.23956	-0.005798	0.20065	0.078888	-0.000305	-0.013123
28.43	-0.002441	-0.06485	0.050812	0.003815	-0.029297	-0.023193	0.097809	0.006104	0.21072	0.004883	0.15366	0	0.072784	0.1033	0.044098	-0.001068	0.00824	-0.074768	-0.055084	0.088043	0.015411	0.013275	0.018463	-0.10757	0.033722	-0.007477	-0.04776	-0.000763	0.11231	0.033875	-0.000458	-0.01236
28.431	-0.010834	-0.075073	0.03067	0.013275	-0.005951	-0.023651	0.084839	0.005188	0.023651	-0.011444	0.36041	-0.001373	0.074158	0.072937	0.16083	0.011292	0.010834	-0.028229	-0.22018	0.004883	0.007172	-0.008698	-0.080566	-0.074463	-0.032501	-0.009766	0.26794	-0.002747	-0.054779	0.014343	-0.003662	-0.011292
28.432	-0.016174	-0.044861	0.025177	-0.000458	-0.062714	-0.00412	0.032196	0.006866	-0.23529	-0.022736	0.34149	0.005951	0.12543	0.062408	1.0095	0.023499	0.013123	-0.045471	-0.18784	0.015106	0.002441	-0.009766	-0.057373	-0.041199	0.011139	-0.001068	0.15015	-0.001984	-0.41855	-0.018768	0.002136	-0.010529
28.433	-0.005951	-0.046539	0.008545	0.022278	-0.11612	0.052032	0.002441	0.011292	-0.31616	-0.004272	0.24719	0.000153	0.17532	0.067749	-0.36697	0.010986	0.001678	-0.074921	-0.17059	-0.009155	0.018463	0.00412	-0.036163	-0.043182	0.033264	-0.00473	-0.18417	-0.002136	0.13428	0.005493	0.001221	-0.014954
28.434	-0.000153	-0.041199	0.019379	0.012512	-0.088501	0.075226	0.004578	0.013885	-0.2565	0.001984	-0.027313	-0.005951	0.25101	0.019379	-1.0001	0.005646	0.001373	-0.029449	-0.14725	-0.016632	0.015259	0.006866	-0.088348	-0.04425	-0.003052	-0.007019	-0.16281	-0.004272	0.29526	0.014648	0.000763	-0.016937
28.435	-0.018158	-0.057983	0.016327	0.000458	-0.095673	0.063782	0.046234	0.00824	-0.079346	0.036621	-0.027771	-0.003052	0.20096	-0.032349	-0.33127	-0.013885	-0.002747	-0.035095	-0.006256	-0.026398	0.020599	-0.000153	-0.045319	-0.052948	0.01297	-0.007935	-0.021515	-0.003052	0.62057	0.034485	0.000458	-0.020752
28.436	-0.011902	-0.019531	-0.005035	0.012817	-0.053101	-0.023956	0.11032	0.005493	0.004578	0.043793	-0.039063	-0.000153	0.11963	-0.026855	-0.21606	-0.012665	0.006409	-0.037537	0.13611	-0.015717	0.022125	0.007324	-0.014496	-0.073242	0.01236	-0.00061	-0.062256	-0.005951	0.22049	0.015259	0.000305	-0.018005
28.437	0.028687	-0.005341	-0.04364	-0.00885	0.056763	-0.081482	0.095825	-0.007019	0.00885	0.014191	-0.12268	-0.002136	0.11536	-0.11612	-0.73486	0.008087	0.006104	-0.054626	0.003357	0.002747	0.019836	0.008545	-0.045319	-0.061493	0.007324	-0.00824	-0.04303	-0.004578	-0.22598	0.002136	-0.001068	-0.025024
28.438	0.019379	-0.012512	-0.079193	-0.006866	0.1033	-0.072174	0.10208	-0.006561	0.087891	0.027161	-0.27084	0	0.075073	-0.26001	-0.65353	0.01236	0	-0.037689	-0.060577	-0.029144	0.028687	-0.003815	-0.035706	-0.041656	0.013733	-0.007324	-0.023804	-0.003357	-0.27802	-0.011749	0.001526	-0.016937
28.439	0.017853	-0.048676	-0.019073	0.004578	0.10452	-0.072479	0.097656	-0.02243	0.077209	0.032043	-0.083313	-0.000916	0.053558	-0.17227	-0.18921	0.010223	0.00885	-0.030975	-0.15488	-0.090637	0.004425	-0.00824	-0.021362	-0.062103	0.010376	-0.007935	0.03891	-0.002747	-0.37064	0.027008	0.001678	-0.020599
28.44	0.012817	-0.059052	-0.026398	-0.006409	0.10101	-0.008698	0.086212	-0.013275	-0.007935	0.037384	-0.13596	-0.002899	0.021362	-0.095367	0.04303	0.012665	0.012817	-0.024109	0.14313	-0.15137	0.004578	-0.001068	-0.00946	-0.084076	0.011292	-0.010681	0.059509	-0.005035	-0.59723	-0.001526	-0.000305	-0.011444
28.441	-0.007629	-0.077209	-0.084686	0.006409	-0.010681	0.021515	0.103	-0.003815	-0.073242	0.03006	-0.14221	-0.000916	0.042572	-0.039978	0.10025	0.010071	-0.005188	0.036011	0.021973	-0.095215	0.001221	-0.030365	-0.019226	-0.032654	0.018616	0.004883	0.084229	-0.003204	-0.8519	-0.049286	-0.004272	-0.011292
28.442	0.004883	-0.050354	-0.17425	0.005798	-0.08606	0.012512	0.001221	0.01297	0.036774	0.028839	-0.13534	-0.000916	0.084381	-0.071564	0.17273	0.005798	0.005035	-0.031738	-0.21652	0.031586	0.022888	-0.015717	0.001678	-0.007324	0.008392	-0.002594	0.09613	-0.002136	-0.54855	-0.055237	-0.000153	-0.015564
28.443	0.017242	0.042877	0.02655	-0.007477	0.025635	-0.050812	-0.103	0.005798	0.19394	0.036316	-0.095673	0.00412	0.1001	-0.12878	0.25436	0.014954	0.017395	-0.024567	-0.25207	0.048981	0.015411	-0.019989	0.002747	-0.042572	0.021973	0.003967	0.054169	-0.006714	0.41534	-0.094757	0.001831	-0.009918
28.444	0.030365	0.006104	0.16571	0.01358	0.11871	-0.043488	-0.15152	0.01297	0.3093	0.031891	-0.029297	0.007629	0.10162	-0.11353	0.29083	0.006256	0.008087	-0.019989	-0.088806	-0.017242	0.014191	-0.016785	-0.02533	-0.077972	-0.005951	0.001526	0.014343	-0.001068	1.2151	-0.12253	0.002289	-0.011902
28.445	0.026703	-0.080414	0.068512	0.023956	0.072327	0.003815	-0.11002	0.014343	0.35034	0.030212	-0.007782	0.002441	0.058289	-0.16525	0.22492	0.022736	0.013885	-0.019989	-0.11932	0.030518	0.009766	-0.048981	-0.033875	-0.059357	-0.0177	-0.003662	0.031738	-0.006256	0.65521	-0.14313	0.002136	-0.009613
